HIERARCHY
ROOT hips
{
	OFFSET 0.000000 104.274902 0.000000
	CHANNELS 6 Xposition Yposition Zposition Xrotation Yrotation Zrotation
	JOINT spine
	{
		OFFSET 0.000000 10.181549 0.131524
		CHANNELS 6 Xposition Yposition Zposition Xrotation Yrotation Zrotation
		JOINT chest
		{
			OFFSET 0.000000 9.893990 -1.470706
			CHANNELS 3 Xrotation Yrotation Zrotation
			JOINT upperChest
			{
				OFFSET 0.000000 9.220787 -1.370637
				CHANNELS 3 Xrotation Yrotation Zrotation
				JOINT neck
				{
					OFFSET 0.000000 16.740372 -2.049022
					CHANNELS 6 Xposition Yposition Zposition Xrotation Yrotation Zrotation
					JOINT head
					{
						OFFSET 0.000000 9.617859 1.684976
						CHANNELS 6 Xposition Yposition Zposition Xrotation Yrotation Zrotation
						JOINT headEnd
						{
							OFFSET 0.000000 22.037384 7.501072
							CHANNELS 6 Xposition Yposition Zposition Xrotation Yrotation Zrotation
							End Site
							{
								OFFSET 0.000000 23.106567 -2.828246
							}
						}
					}
				}
				JOINT rightShoulder
				{
					OFFSET -4.570000 11.014877 -2.160840
					CHANNELS 6 Xposition Yposition Zposition Xrotation Yrotation Zrotation
					JOINT rightUpperArm
					{
						OFFSET -10.592867 -0.524796 -2.232105
						CHANNELS 3 Xrotation Yrotation Zrotation
						JOINT rightLowerArm
						{
							OFFSET -27.841497 0.000000 -0.000002
							CHANNELS 3 Xrotation Yrotation Zrotation
							JOINT rightHand
							{
								OFFSET -28.328812 0.000000 -0.000001
								CHANNELS 3 Xrotation Yrotation Zrotation
								JOINT rightThumbProximal
								{
									OFFSET -2.464798 -1.573990 2.681911
									CHANNELS 6 Xposition Yposition Zposition Xrotation Yrotation Zrotation
									JOINT rightThumbIntermediate
									{
										OFFSET -3.244781 -1.873383 1.873376
										CHANNELS 3 Xrotation Yrotation Zrotation
										JOINT rightThumbDistal
										{
											OFFSET -2.646263 -1.527817 1.527818
											CHANNELS 6 Xposition Yposition Zposition Xrotation Yrotation Zrotation
											JOINT rightHandThumb4
											{
												OFFSET -1.994591 -1.151581 1.151575
												CHANNELS 6 Xposition Yposition Zposition Xrotation Yrotation Zrotation
												End Site
												{
													OFFSET -1.860176 -1.142715 1.365483
												}
											}
										}
									}
								}
								JOINT rightIndexProximal
								{
									OFFSET -9.108299 -0.517883 2.259803
									CHANNELS 6 Xposition Yposition Zposition Xrotation Yrotation Zrotation
									JOINT rightIndexIntermediate
									{
										OFFSET -3.699997 0.000000 0.000000
										CHANNELS 3 Xrotation Yrotation Zrotation
										JOINT rightIndexDistal
										{
											OFFSET -2.850006 0.000000 0.000000
											CHANNELS 3 Xrotation Yrotation Zrotation
											JOINT rightHandIndex4
											{
												OFFSET -2.772194 0.000000 0.000000
												CHANNELS 3 Xrotation Yrotation Zrotation
												End Site
												{
													OFFSET -2.772202 0.000000 -0.000484
												}
											}
										}
									}
								}
								JOINT rightMiddleProximal
								{
									OFFSET -9.532501 0.000000 -0.000000
									CHANNELS 6 Xposition Yposition Zposition Xrotation Yrotation Zrotation
									JOINT rightMiddleIntermediate
									{
										OFFSET -3.699997 0.000000 0.000000
										CHANNELS 3 Xrotation Yrotation Zrotation
										JOINT rightMiddleDistal
										{
											OFFSET -2.949997 0.000000 0.000000
											CHANNELS 3 Xrotation Yrotation Zrotation
											JOINT rightHandMiddle4
											{
												OFFSET -2.946594 0.000000 0.000000
												CHANNELS 3 Xrotation Yrotation Zrotation
												End Site
												{
													OFFSET -2.946602 0.000000 -0.000982
												}
											}
										}
									}
								}
								JOINT rightRingProximal
								{
									OFFSET -9.103600 -0.043106 -1.865100
									CHANNELS 6 Xposition Yposition Zposition Xrotation Yrotation Zrotation
									JOINT rightRingIntermediate
									{
										OFFSET -3.379303 0.000000 0.000000
										CHANNELS 3 Xrotation Yrotation Zrotation
										JOINT rightRingDistal
										{
											OFFSET -2.889694 0.000000 0.000000
											CHANNELS 3 Xrotation Yrotation Zrotation
											JOINT rightHandRing4
											{
												OFFSET -2.638802 0.000000 0.000000
												CHANNELS 3 Xrotation Yrotation Zrotation
												End Site
												{
													OFFSET -2.638802 0.000000 0.004218
												}
											}
										}
									}
								}
								JOINT rightLittleProximal
								{
									OFFSET -8.076698 -0.486725 -3.806299
									CHANNELS 6 Xposition Yposition Zposition Xrotation Yrotation Zrotation
									JOINT rightLittleIntermediate
									{
										OFFSET -3.600006 0.000000 0.000000
										CHANNELS 3 Xrotation Yrotation Zrotation
										JOINT rightLittleDistal
										{
											OFFSET -2.099998 0.000000 0.000000
											CHANNELS 3 Xrotation Yrotation Zrotation
											JOINT rightHandPinky4
											{
												OFFSET -2.115791 0.000000 0.000000
												CHANNELS 3 Xrotation Yrotation Zrotation
												End Site
												{
													OFFSET -2.115799 0.000000 0.000174
												}
											}
										}
									}
								}
							}
						}
					}
				}
				JOINT leftShoulder
				{
					OFFSET 4.570400 11.014679 -2.160816
					CHANNELS 6 Xposition Yposition Zposition Xrotation Yrotation Zrotation
					JOINT leftUpperArm
					{
						OFFSET 10.592373 -0.524597 -2.232116
						CHANNELS 3 Xrotation Yrotation Zrotation
						JOINT leftLowerArm
						{
							OFFSET 27.841488 0.000000 0.000001
							CHANNELS 3 Xrotation Yrotation Zrotation
							JOINT leftHand
							{
								OFFSET 28.328808 0.000000 -0.000000
								CHANNELS 3 Xrotation Yrotation Zrotation
								JOINT leftThumbProximal
								{
									OFFSET 2.466103 -1.576202 2.681698
									CHANNELS 6 Xposition Yposition Zposition Xrotation Yrotation Zrotation
									JOINT leftThumbIntermediate
									{
										OFFSET 3.243317 -1.872528 1.872530
										CHANNELS 3 Xrotation Yrotation Zrotation
										JOINT leftThumbDistal
										{
											OFFSET 2.647881 -1.528763 1.528754
											CHANNELS 6 Xposition Yposition Zposition Xrotation Yrotation Zrotation
											JOINT leftHandThumb4
											{
												OFFSET 1.998924 -1.154083 1.154080
												CHANNELS 6 Xposition Yposition Zposition Xrotation Yrotation Zrotation
												End Site
												{
													OFFSET 1.884041 -1.149155 1.337651
												}
											}
										}
									}
								}
								JOINT leftIndexProximal
								{
									OFFSET 9.109299 -0.518005 2.259900
									CHANNELS 6 Xposition Yposition Zposition Xrotation Yrotation Zrotation
									JOINT leftIndexIntermediate
									{
										OFFSET 3.699997 0.000000 0.000000
										CHANNELS 3 Xrotation Yrotation Zrotation
										JOINT leftIndexDistal
										{
											OFFSET 2.850006 0.000000 0.000000
											CHANNELS 3 Xrotation Yrotation Zrotation
											JOINT leftHandIndex4
											{
												OFFSET 2.774895 0.000000 0.000000
												CHANNELS 3 Xrotation Yrotation Zrotation
												End Site
												{
													OFFSET 2.774902 0.000000 -0.000072
												}
											}
										}
									}
								}
								JOINT leftMiddleProximal
								{
									OFFSET 9.533401 0.000000 0.000000
									CHANNELS 6 Xposition Yposition Zposition Xrotation Yrotation Zrotation
									JOINT leftMiddleIntermediate
									{
										OFFSET 3.699997 0.000000 0.000000
										CHANNELS 3 Xrotation Yrotation Zrotation
										JOINT leftMiddleDistal
										{
											OFFSET 2.949997 0.000000 0.000000
											CHANNELS 3 Xrotation Yrotation Zrotation
											JOINT leftHandMiddle4
											{
												OFFSET 2.952896 0.000000 0.000000
												CHANNELS 3 Xrotation Yrotation Zrotation
												End Site
												{
													OFFSET 2.952904 0.000000 0.000165
												}
											}
										}
									}
								}
								JOINT leftRingProximal
								{
									OFFSET 9.104500 -0.042999 -1.865101
									CHANNELS 6 Xposition Yposition Zposition Xrotation Yrotation Zrotation
									JOINT leftRingIntermediate
									{
										OFFSET 3.149994 0.000000 0.000000
										CHANNELS 3 Xrotation Yrotation Zrotation
										JOINT leftRingDistal
										{
											OFFSET 2.950005 0.000000 0.000000
											CHANNELS 3 Xrotation Yrotation Zrotation
											JOINT leftHandRing4
											{
												OFFSET 2.644302 0.000000 0.000000
												CHANNELS 3 Xrotation Yrotation Zrotation
												End Site
												{
													OFFSET 2.644302 0.000000 0.000083
												}
											}
										}
									}
								}
								JOINT leftLittleProximal
								{
									OFFSET 8.077805 -0.486893 -3.806302
									CHANNELS 6 Xposition Yposition Zposition Xrotation Yrotation Zrotation
									JOINT leftLittleIntermediate
									{
										OFFSET 3.600006 0.000000 0.000000
										CHANNELS 3 Xrotation Yrotation Zrotation
										JOINT leftLittleDistal
										{
											OFFSET 2.099998 0.000000 0.000000
											CHANNELS 3 Xrotation Yrotation Zrotation
											JOINT leftHandPinky4
											{
												OFFSET 2.125496 0.000000 0.000000
												CHANNELS 3 Xrotation Yrotation Zrotation
												End Site
												{
													OFFSET 2.125504 0.000000 -0.001254
												}
											}
										}
									}
								}
							}
						}
					}
				}
			}
		}
	}
	JOINT rightUpperLeg
	{
		OFFSET -8.207800 -6.751701 -1.599544
		CHANNELS 6 Xposition Yposition Zposition Xrotation Yrotation Zrotation
		JOINT rightLowerLeg
		{
			OFFSET 0.000004 -44.370152 0.345934
			CHANNELS 3 Xrotation Yrotation Zrotation
			JOINT rightFoot
			{
				OFFSET 0.000004 -44.423664 -3.043535
				CHANNELS 3 Xrotation Yrotation Zrotation
				JOINT rightToes
				{
					OFFSET 0.000001 -8.728691 10.710592
					CHANNELS 3 Xrotation Yrotation Zrotation
					JOINT rightToesEnd
					{
						OFFSET 0.000000 -0.000665 9.278101
						CHANNELS 3 Xrotation Yrotation Zrotation
						End Site
						{
							OFFSET 0.000000 -0.000665 9.278103
						}
					}
				}
			}
		}
	}
	JOINT leftUpperLeg
	{
		OFFSET 8.207800 -6.751701 -1.599544
		CHANNELS 6 Xposition Yposition Zposition Xrotation Yrotation Zrotation
		JOINT leftLowerLeg
		{
			OFFSET 0.000004 -44.370037 0.346940
			CHANNELS 3 Xrotation Yrotation Zrotation
			JOINT leftFoot
			{
				OFFSET 0.000004 -44.423611 -3.044388
				CHANNELS 3 Xrotation Yrotation Zrotation
				JOINT leftToes
				{
					OFFSET 0.000001 -8.728690 10.710592
					CHANNELS 3 Xrotation Yrotation Zrotation
					JOINT leftToesEnd
					{
						OFFSET 0.000000 -0.000680 9.278101
						CHANNELS 3 Xrotation Yrotation Zrotation
						End Site
						{
							OFFSET 0.000000 -0.000680 9.278101
						}
					}
				}
			}
		}
	}
}
MOTION
Frames: 4
Frame Time: 0.033333
0.304256 102.637535 1.487747 -3.750224 -6.075232 -4.710521 -0.000001 10.181544 0.131525 3.275732 1.595877 3.854071 1.158074 0.357948 1.691010 1.131807 0.383461 1.696558 -0.000001 16.740330 -2.049016 5.626309 -0.078965 0.454685 0.000000 9.617867 1.684973 -7.563343 1.375723 -0.080565 0.000001 22.037384 7.501077 -0.000000 -0.000000 0.000000 -4.570001 11.014852 -2.160835 1.203152 15.343655 14.705954 13.158787 27.555099 58.785198 -0.000002 6.693732 0.000017 -20.179058 -0.514133 6.782801 -2.464789 -1.573986 2.681910 -1.665247 -0.174471 -4.219023 12.710578 -29.825206 -16.136023 -2.646257 -1.527810 1.527809 -15.561514 -3.543818 -12.708275 -1.994594 -1.151590 1.151574 0.000002 -0.000000 0.000004 -9.108296 -0.517874 2.259803 0.026156 1.260810 6.824092 0.213811 -1.396319 17.410787 0.046064 -0.654152 8.056964 0.000001 -0.000000 -0.000001 -9.532492 -0.000005 -0.000000 -0.138044 -2.198289 14.999386 0.214854 -1.399648 17.453691 0.240209 -1.477810 18.462939 -0.000001 0.000002 0.000003 -9.103592 -0.043108 -1.865103 0.030622 -3.075752 20.451031 0.308410 -1.668196 20.947464 0.225794 -1.433965 17.896214 -0.000001 0.000005 0.000003 -8.076693 -0.486719 -3.806296 0.748885 -4.885236 26.473786 0.214448 -1.398372 17.437254 0.193012 -1.328184 16.535821 -0.000000 -0.000000 0.000000 4.570398 11.014668 -2.160809 1.049449 -17.442076 -12.319447 3.916252 -19.989242 -69.765267 -0.000001 -1.459357 0.000009 -33.230503 -1.364897 -6.186628 2.466092 -1.576199 2.681698 -0.662918 2.160399 4.832494 11.853284 25.431349 17.058795 2.647888 -1.528759 1.528752 -13.811846 3.542645 9.021647 1.998917 -1.154094 1.154077 -0.000000 0.000002 -0.000000 9.109300 -0.518008 2.259899 0.009873 -0.968243 -7.593684 0.268484 1.754919 -17.396150 0.057969 0.823044 -8.058412 -0.000001 0.000000 0.000005 9.533403 0.000010 0.000000 -0.076332 2.665807 -15.696823 0.268838 1.756071 -17.407960 0.300588 1.854274 -18.416048 0.000001 0.000001 0.000004 9.104487 -0.043001 -1.865101 0.134749 3.636316 -21.133966 0.386588 2.094823 -20.911896 0.283035 1.800680 -17.865007 -0.000001 -0.000002 -0.000004 8.077805 -0.486887 -3.806301 0.925825 5.556924 -27.127841 0.269382 1.757829 -17.425945 0.242535 1.669919 -16.528154 -0.000001 -0.000000 0.000002 -8.207801 -6.751719 -1.599543 -2.200777 -10.622784 3.806126 13.298230 -9.857928 -3.285745 -6.588632 -1.759533 3.772368 -7.282881 -0.000007 -0.000002 -0.000001 -0.000002 -0.000000 8.207798 -6.751709 -1.599544 -19.656315 31.927470 16.673986 18.500962 -7.223944 5.646996 -1.992326 -8.593725 -5.465876 -4.928519 -0.000002 0.000002 0.000000 0.000000 0.000000 
0.198246 102.544930 0.748085 -2.957045 -2.395961 -4.115122 0.000001 10.181551 0.131523 3.353093 1.849512 3.892410 1.248462 0.509766 1.699852 1.218345 0.536308 1.655904 0.000001 16.740364 -2.049021 5.523492 0.612423 0.100402 0.000001 9.617867 1.684979 -7.889782 3.579784 -0.644333 0.000000 22.037354 7.501076 -0.000001 -0.000000 -0.000000 -4.570001 11.014884 -2.160841 1.250878 15.407589 14.460573 13.944081 27.532084 58.271779 0.000007 6.984353 -0.000001 -20.528236 -0.627556 6.704419 -2.464796 -1.574005 2.681906 -1.665241 -0.174471 -4.219023 12.693785 -29.781623 -16.134729 -2.646271 -1.527811 1.527809 -15.561522 -3.543837 -12.708284 -1.994590 -1.151571 1.151570 -0.000004 -0.000002 0.000003 -9.108315 -0.517878 2.259803 0.021712 1.282879 6.850928 0.213683 -1.395920 17.405670 0.046010 -0.653734 8.051825 -0.000001 -0.000000 0.000005 -9.532516 0.000010 -0.000002 -0.137361 -2.208687 15.086022 0.214859 -1.399656 17.453693 0.240195 -1.477811 18.462918 -0.000001 0.000001 0.000004 -9.103604 -0.043098 -1.865104 0.024774 -3.063057 20.515223 0.308419 -1.668196 20.947464 0.225799 -1.433982 17.896217 0.000001 -0.000001 0.000000 -8.076702 -0.486729 -3.806299 0.692588 -4.809682 26.559134 0.216193 -1.403915 17.508662 0.194624 -1.333601 16.605163 0.000001 -0.000000 -0.000001 4.570403 11.014691 -2.160815 0.993323 -17.560097 -12.568287 2.639231 -19.942834 -69.046635 0.000004 -2.239528 0.000001 -33.120752 -2.737463 -5.111415 2.466092 -1.576217 2.681698 -0.662916 2.160399 4.832494 11.641195 25.398863 17.084615 2.647870 -1.528749 1.528745 -13.826040 3.638086 9.043129 1.998908 -1.154076 1.154076 0.000000 0.000004 0.000007 9.109284 -0.518007 2.259900 0.003091 -0.982781 -7.663289 0.268476 1.754924 -17.396132 0.057962 0.823039 -8.058428 0.000001 -0.000001 0.000004 9.533402 0.000008 -0.000001 -0.097045 2.598658 -15.774740 0.268973 1.756475 -17.412080 0.300719 1.854687 -18.420305 -0.000000 -0.000001 0.000001 9.104506 -0.042998 -1.865102 0.137121 3.645324 -21.200738 0.387605 2.097484 -20.939719 0.283900 1.803382 -17.892809 -0.000000 -0.000000 0.000002 8.077802 -0.486894 -3.806302 0.908137 5.521710 -27.172886 0.269382 1.757828 -17.425962 0.242539 1.669923 -16.528163 0.000000 -0.000000 -0.000003 -8.207800 -6.751720 -1.599544 -3.545125 -14.323447 3.096248 14.356146 -9.950991 -3.292447 -7.010345 -1.758532 3.686413 -7.282880 0.000009 0.000001 0.000000 0.000002 0.000000 8.207803 -6.751705 -1.599545 -22.133773 31.655314 17.472455 19.697917 -7.608014 4.163117 -1.049325 -11.089597 -6.414298 -4.410388 0.000001 -0.000001 -0.000001 0.000000 0.000000 
-0.179706 102.551430 -0.127718 -2.490108 1.487323 -3.585369 0.000000 10.181545 0.131523 3.492353 2.027425 3.737423 1.378471 0.638940 1.853692 1.345407 0.654380 1.659404 0.000001 16.740376 -2.049020 5.828957 2.011483 -0.496222 0.000000 9.617866 1.684975 -7.477632 7.166991 -1.528800 -0.000000 22.037384 7.501074 0.000001 -0.000001 0.000000 -4.570000 11.014893 -2.160837 1.295810 15.400601 14.248030 14.818042 26.917113 57.631278 -0.000003 7.483136 0.000003 -20.970960 -1.089797 6.402218 -2.464804 -1.573999 2.681910 -1.665239 -0.174473 -4.219022 12.743194 -29.861283 -16.080075 -2.646270 -1.527817 1.527815 -15.561512 -3.543833 -12.708289 -1.994594 -1.151588 1.151575 -0.000001 0.000000 0.000001 -9.108299 -0.517886 2.259801 0.015576 1.275293 6.948878 0.213188 -1.394338 17.385388 0.045776 -0.652098 8.031557 -0.000005 0.000000 0.000001 -9.532508 0.000014 -0.000002 -0.133833 -2.228276 15.159286 0.214857 -1.399651 17.453700 0.240200 -1.477807 18.462927 -0.000005 0.000004 -0.000002 -9.103602 -0.043097 -1.865104 0.016620 -3.045176 20.599678 0.308414 -1.668194 20.947447 0.225800 -1.433983 17.896226 -0.000001 -0.000002 -0.000000 -8.076694 -0.486728 -3.806302 0.635235 -4.733408 26.652711 0.215635 -1.402115 17.485397 0.194036 -1.331624 16.579750 -0.000000 0.000001 0.000002 4.570399 11.014682 -2.160813 0.896391 -17.701397 -13.016395 1.086110 -20.075244 -67.752902 0.000004 -2.690336 0.000006 -30.913959 -3.397001 -2.875152 2.466098 -1.576204 2.681694 -0.662916 2.160404 4.832495 12.005987 25.549434 17.043284 2.647887 -1.528738 1.528751 -13.801173 3.428693 9.048706 1.998933 -1.154080 1.154072 0.000002 0.000005 -0.000000 9.109309 -0.518014 2.259897 0.019247 -0.913428 -7.884280 0.268480 1.754917 -17.396130 0.057958 0.823039 -8.058417 -0.000001 0.000000 -0.000001 9.533422 0.000000 -0.000003 -0.081696 2.675206 -16.032457 0.269721 1.758886 -17.436747 0.301521 1.857062 -18.444729 -0.000000 0.000000 0.000004 9.104506 -0.042996 -1.865104 0.159165 3.709046 -21.374903 0.388311 2.099319 -20.958905 0.284492 1.805229 -17.911794 0.000000 -0.000001 -0.000005 8.077813 -0.486889 -3.806304 0.951110 5.588804 -27.279803 0.269380 1.757829 -17.425962 0.242538 1.669922 -16.528158 -0.000000 0.000001 -0.000001 -8.207801 -6.751698 -1.599542 -4.311774 -18.155126 2.503506 14.693349 -9.958183 -3.292891 -7.099941 -1.842683 3.370685 -7.282879 0.000005 0.000000 0.000000 -0.000001 0.000000 8.207800 -6.751695 -1.599544 -24.386941 31.454736 18.427451 21.179872 -8.108666 2.797122 0.141130 -10.095473 -9.887048 -4.045813 -0.000001 0.000002 0.000000 -0.000002 -0.000000 
-0.557657 102.557930 -1.003523 -2.057323 5.374646 -3.085240 0.000000 10.181562 0.131524 3.632111 2.204962 3.581985 1.508137 0.768464 2.007245 1.472464 0.772460 1.662642 0.000000 16.740360 -2.049022 6.149353 3.407265 -1.100996 -0.000001 9.617868 1.684974 -7.005124 10.747302 -2.448256 -0.000000 22.037369 7.501073 -0.000000 -0.000000 -0.000000 -4.569999 11.014899 -2.160841 1.340713 15.393453 14.035503 15.679567 26.293583 57.004783 -0.000006 7.981916 0.000008 -21.416203 -1.549684 6.096395 -2.464797 -1.574004 2.681909 -1.665236 -0.174476 -4.219023 12.792745 -29.940903 -16.025302 -2.646272 -1.527805 1.527817 -15.561500 -3.543828 -12.708297 -1.994599 -1.151585 1.151575 -0.000002 -0.000003 0.000003 -9.108298 -0.517881 2.259806 0.009451 1.267698 7.046830 0.212682 -1.392756 17.365092 0.045547 -0.650463 8.011289 0.000001 -0.000003 -0.000002 -9.532496 0.000012 0.000001 -0.130281 -2.247861 15.232548 0.214861 -1.399648 17.453708 0.240201 -1.477801 18.462935 -0.000001 0.000001 -0.000002 -9.103600 -0.043113 -1.865100 0.008436 -3.027307 20.684133 0.308409 -1.668193 20.947425 0.225800 -1.433986 17.896231 0.000000 -0.000003 0.000000 -8.076699 -0.486706 -3.806298 0.577767 -4.657229 26.746360 0.215072 -1.400309 17.462121 0.193448 -1.329641 16.554328 0.000000 0.000001 0.000001 4.570402 11.014678 -2.160814 0.798225 -17.841964 -13.465101 -0.464911 -20.240531 -66.462269 0.000005 -3.141143 0.000011 -28.681535 -3.969551 -0.613552 2.466097 -1.576198 2.681702 -0.662916 2.160399 4.832492 12.371348 25.699743 17.000829 2.647887 -1.528745 1.528751 -13.776283 3.219295 9.054378 1.998920 -1.154094 1.154077 0.000001 -0.000000 0.000002 9.109307 -0.518008 2.259900 0.035670 -0.844134 -8.105287 0.268484 1.754913 -17.396130 0.057954 0.823037 -8.058406 -0.000000 -0.000001 0.000000 9.533397 0.000008 0.000000 -0.066000 2.751687 -16.290209 0.270469 1.761296 -17.461416 0.302324 1.859436 -18.469154 0.000000 0.000000 0.000001 9.104497 -0.042997 -1.865101 0.181406 3.772705 -21.549093 0.389018 2.101154 -20.978094 0.285083 1.807075 -17.930775 0.000000 0.000000 -0.000002 8.077795 -0.486885 -3.806300 0.994215 5.655819 -27.386765 0.269380 1.757831 -17.425961 0.242537 1.669920 -16.528163 0.000000 0.000001 0.000005 -8.207800 -6.751698 -1.599543 -5.140042 -21.978533 1.840928 15.030555 -9.965383 -3.293292 -7.190002 -1.926337 3.054813 -7.282874 0.000006 0.000002 -0.000000 -0.000002 -0.000000 8.207801 -6.751693 -1.599545 -26.630713 31.222396 19.370295 22.651323 -8.644018 1.442860 1.387016 -9.174165 -13.370109 -3.681234 -0.000007 0.000002 -0.000000 -0.000000 0.000001 
